<svg width="20" height="15" viewBox="0 0 26 25" fill="none" xmlns="http://www.w3.org/2000/svg">
<path d="M12.906 6.09032C9.31544 6.09032 6.41924 8.95208 6.41924 12.5C6.41924 16.0479 9.31544 18.9097 12.906 18.9097C16.4967 18.9097 19.3928 16.0479 19.3928 12.5C19.3928 8.95208 16.4967 6.09032 12.906 6.09032ZM12.906 16.6671C10.5857 16.6671 8.68877 14.7983 8.68877 12.5C8.68877 10.2017 10.5801 8.33287 12.906 8.33287C15.232 8.33287 17.1233 10.2017 17.1233 12.5C17.1233 14.7983 15.2264 16.6671 12.906 16.6671ZM21.1712 5.82813C21.1712 6.65932 20.4937 7.32316 19.6582 7.32316C18.817 7.32316 18.1452 6.65374 18.1452 5.82813C18.1452 5.00251 18.8226 4.33309 19.6582 4.33309C20.4937 4.33309 21.1712 5.00251 21.1712 5.82813ZM25.4675 7.34548C25.3715 5.3428 24.9086 3.56884 23.4238 2.10727C21.9447 0.64571 20.1494 0.188274 18.1226 0.0878612C16.0337 -0.0292871 9.77273 -0.0292871 7.68386 0.0878612C5.66273 0.182696 3.86742 0.640132 2.38263 2.1017C0.897834 3.56326 0.440539 5.33722 0.338918 7.3399C0.220361 9.40394 0.220361 15.5905 0.338918 17.6545C0.434894 19.6572 0.897834 21.4312 2.38263 22.8927C3.86742 24.3543 5.65708 24.8117 7.68386 24.9121C9.77273 25.0293 16.0337 25.0293 18.1226 24.9121C20.1494 24.8173 21.9447 24.3599 23.4238 22.8927C24.903 21.4312 25.3659 19.6572 25.4675 17.6545C25.5861 15.5905 25.5861 9.40952 25.4675 7.34548ZM22.7689 19.8692C22.3286 20.9626 21.4761 21.8049 20.3639 22.2456C18.6984 22.8983 14.7465 22.7477 12.906 22.7477C11.0656 22.7477 7.108 22.8927 5.44819 22.2456C4.34165 21.8105 3.48917 20.9681 3.04317 19.8692C2.38263 18.2235 2.53506 14.3186 2.53506 12.5C2.53506 10.6814 2.38827 6.77089 3.04317 5.13082C3.48352 4.03743 4.33601 3.19508 5.44819 2.75438C7.11365 2.1017 11.0656 2.25232 12.906 2.25232C14.7465 2.25232 18.7041 2.10727 20.3639 2.75438C21.4704 3.1895 22.3229 4.03185 22.7689 5.13082C23.4295 6.77647 23.277 10.6814 23.277 12.5C23.277 14.3186 23.4295 18.2291 22.7689 19.8692Z" fill="#FBFBFB"/>
</svg>
