<svg width="20" height="15" viewBox="0 0 26 25" fill="none" xmlns="http://www.w3.org/2000/svg">
<path d="M6.30372 25H1.09923V8.30878H6.30372V25ZM3.69867 6.03194C2.03444 6.03194 0.68457 4.65914 0.68457 3.00174C0.68457 2.20563 1.00213 1.44213 1.56738 0.87919C2.13263 0.316254 2.89928 0 3.69867 0C4.49806 0 5.26471 0.316254 5.82996 0.87919C6.39522 1.44213 6.71277 2.20563 6.71277 3.00174C6.71277 4.65914 5.36234 6.03194 3.69867 6.03194ZM25.7825 25H20.5892V16.8748C20.5892 14.9384 20.55 12.4551 17.8833 12.4551C15.1774 12.4551 14.7627 14.5589 14.7627 16.7353V25H9.56381V8.30878H14.5554V10.5856H14.6282C15.3231 9.2742 17.0203 7.89024 19.5525 7.89024C24.8198 7.89024 25.7881 11.3446 25.7881 15.8313V25H25.7825Z" fill="#FBFBFB"/>
</svg>
